<svg xmlns="http://www.w3.org/2000/svg" width="18.799" height="18.798" viewBox="0 0 18.799 18.798">
  <path id="phone" d="M13.015,5.625a4.532,4.532,0,0,1,3.58,3.58M13.015,2A8.157,8.157,0,0,1,20.22,9.2M17.048,19.22A14.048,14.048,0,0,1,3,5.172q0-.525.038-1.041a1.771,1.771,0,0,1,.147-.771A.961.961,0,0,1,3.576,3a1.981,1.981,0,0,1,.839-.09H6.969a2.066,2.066,0,0,1,.706.06.906.906,0,0,1,.359.252,2.067,2.067,0,0,1,.3.643L9.389,6.767a2.139,2.139,0,0,1,.206.79.906.906,0,0,1-.165.465,2.137,2.137,0,0,1-.658.484l-1.24.744a10.967,10.967,0,0,0,5.438,5.438l.744-1.24a2.136,2.136,0,0,1,.484-.658.907.907,0,0,1,.465-.165,2.139,2.139,0,0,1,.79.206l2.906,1.057a2.067,2.067,0,0,1,.643.3.905.905,0,0,1,.252.359,2.065,2.065,0,0,1,.06.706V17.8a1.98,1.98,0,0,1-.09.839.961.961,0,0,1-.364.392,1.772,1.772,0,0,1-.771.147Q17.573,19.22,17.048,19.22Z" transform="translate(-2.25 -1.172)" fill="none" stroke="#bb9f06" stroke-linecap="round" stroke-linejoin="round" stroke-width="1.5"/>
</svg>
